# xmcd
# Copyright (C) 1995-1998 Ti Kan
#
# Track frame offsets:
#       150
#       14499
#       36457
#       55719
#       82075
#       106182
#       140785
#       161946
#       196617
#       228040
#       256297
#
# Disc length: 3832 seconds
#
# Revision: 0
# Processed by: cddbd v1.5.2PL0 Copyright (c) Steve Scherf et al.
# Submitted via: CD-Transfer v1.0
#
DISCID=900ef60b
DTITLE=Mayer Trio, John - J. Mayer, S. Jordan, P. Paladino
DYEAR=05
DGENRE=
TTITLE0=Who Do You Think I Was (Live)
TTITLE1=Good Love Is On The Way (Live)
TTITLE2=Wait Until Tomorrow (Live)
TTITLE3=Gravity (Live)
TTITLE4=Vultures (Live)
TTITLE5=Out Of My Mind (Live)
TTITLE6=Another Kind Of Green (Live)
TTITLE7=I Got A Woman (Live)
TTITLE8=Something's Missing (Live)
TTITLE9=Daughters (Live)
TTITLE10=Try (Live)
EXTD=
EXTT0=
EXTT1=
EXTT2=
EXTT3=
EXTT4=
EXTT5=
EXTT6=
EXTT7=
EXTT8=
EXTT9=
EXTT10=
PLAYORDER=
